<?xml version="1.0" standalone="no"?><!DOCTYPE svg PUBLIC "-//W3C//DTD SVG 1.1//EN" "http://www.w3.org/Graphics/SVG/1.1/DTD/svg11.dtd"><svg t="1591417532252" class="icon" viewBox="0 0 1099 1024" version="1.1" xmlns="http://www.w3.org/2000/svg" p-id="4667" xmlns:xlink="http://www.w3.org/1999/xlink" width="214.6484375" height="200"><defs><style type="text/css"></style></defs><path d="M673.792 366.08c0 13.824 10.752 25.088 24.064 25.088s24.064-11.264 24.064-25.088-10.752-25.088-24.064-25.088S673.792 351.744 673.792 366.08L673.792 366.08z" p-id="4668"></path><path d="M673.792 581.12c0 13.824 10.752 24.576 24.064 24.576s24.064-11.264 24.064-24.576c0-13.824-10.752-24.576-24.064-24.576S673.792 567.808 673.792 581.12L673.792 581.12z" p-id="4669"></path><path d="M512.512 657.408l29.696 0 0 94.72-29.696 0 0-94.72Z" p-id="4670"></path><path d="M260.608 657.408 260.608 500.224l538.624 0 0 156.672L260.608 656.896zM769.536 530.432 290.816 530.432l0 96.768 478.72 0C769.536 627.2 769.536 530.432 769.536 530.432z" p-id="4671"></path><path d="M329.216 752.128l397.824 0 0 30.208-397.824 0 0-30.208Z" p-id="4672"></path><path d="M799.232 443.392 260.608 443.392 260.608 288.768l538.624 0L799.232 443.392 799.232 443.392zM769.536 318.464 290.816 318.464l0 94.72 478.72 0C769.536 413.184 769.536 318.464 769.536 318.464z" p-id="4673"></path></svg>